<svg xmlns="http://www.w3.org/2000/svg" viewBox="0 0 640 420" role="img" aria-labelledby="t d">
  <title id="t">ФинТрекер</title><desc id="d">Кошелёк, монеты и диаграмма расходов</desc>
  <defs><linearGradient id="b" x1="0" y1="0" x2="1" y2="1"><stop stop-color="#fff8e9"/><stop offset="1" stop-color="#f7dfb3"/></linearGradient><filter id="s"><feDropShadow dx="0" dy="10" stdDeviation="12" flood-opacity=".16"/></filter></defs>
  <rect width="640" height="420" rx="42" fill="url(#b)"/>
  <circle cx="515" cy="92" r="52" fill="#ffe49b"/><circle cx="515" cy="92" r="37" fill="none" stroke="#b37519" stroke-width="8"/><path d="M515 69v46m-16-36c5-12 37-10 31 5-4 10-30 2-30 15 0 14 29 16 34 2" fill="none" stroke="#b37519" stroke-width="7" stroke-linecap="round"/>
  <g filter="url(#s)"><rect x="78" y="82" width="390" height="258" rx="30" fill="#fff"/><rect x="110" y="116" width="168" height="26" rx="13" fill="#df9e38"/><rect x="110" y="164" width="244" height="16" rx="8" fill="#eadcc7"/><rect x="110" y="199" width="190" height="16" rx="8" fill="#eadcc7"/><path d="M115 292l58-48 51 27 75-77 60 37 70-94" fill="none" stroke="#6aa47a" stroke-width="18" stroke-linecap="round" stroke-linejoin="round"/><circle cx="429" cy="137" r="12" fill="#6aa47a"/></g>
</svg>
