<svg xmlns="http://www.w3.org/2000/svg" viewBox="0 0 640 420" role="img" aria-labelledby="t d"><title id="t">Промпт-мастер эффектов</title><desc id="d">Фотография со световыми эффектами и волшебной кистью</desc><defs><linearGradient id="g"><stop stop-color="#fcecdf"/><stop offset="1" stop-color="#ecd2c7"/></linearGradient><filter id="s"><feDropShadow dy="10" stdDeviation="12" flood-opacity=".16"/></filter></defs><rect width="640" height="420" rx="42" fill="url(#g)"/><g filter="url(#s)"><rect x="92" y="72" width="392" height="280" rx="28" fill="#fff"/><rect x="122" y="102" width="332" height="220" rx="18" fill="#263244"/><circle cx="205" cy="166" r="42" fill="#ffd898"/><path d="M141 292c18-71 117-71 137 0" fill="#d78064"/><path d="M308 275c34-80 73-98 116-130" fill="none" stroke="#70c6c0" stroke-width="16" stroke-linecap="round"/><path d="M313 247c43 10 80-12 105-50" fill="none" stroke="#ffcd5f" stroke-width="10" stroke-linecap="round"/></g><path d="M512 81l10 28 28 10-28 10-10 28-10-28-28-10 28-10zM545 215l7 19 19 7-19 7-7 19-7-19-19-7 19-7z" fill="#c08322"/></svg>
